<svg width="32" height="32" viewBox="0 0 32 32" fill="none" xmlns="http://www.w3.org/2000/svg">
<rect width="32" height="32" rx="4" fill="#0072B1"/>
<path d="M10.1568 11.2233H5.20898V26.0894H10.1568V11.2233Z" fill="white"/>
<path d="M10.4828 6.62464C10.4506 5.16703 9.4083 4.05682 7.71569 4.05682C6.02308 4.05682 4.9165 5.16703 4.9165 6.62464C4.9165 8.05206 5.99037 9.19423 7.65146 9.19423H7.68308C9.4083 9.19423 10.4828 8.05206 10.4828 6.62464Z" fill="white"/>
<path d="M28.0005 17.5657C28.0005 12.9995 25.5596 10.8743 22.3037 10.8743C19.6767 10.8743 18.5006 12.3172 17.8439 13.3294V11.2237H12.8955C12.9607 12.6187 12.8955 26.0899 12.8955 26.0899H17.8439V17.7874C17.8439 17.3431 17.876 16.8999 18.0068 16.5818C18.3644 15.6942 19.1786 14.7752 20.5456 14.7752C22.3367 14.7752 23.0527 16.1384 23.0527 18.1361V26.0895H28.0003L28.0005 17.5657Z" fill="white"/>
</svg>
