<svg width="209" height="49" viewBox="0 0 209 49" fill="none" xmlns="http://www.w3.org/2000/svg">
<path d="M63.7986 32.9617C65.1279 32.9617 66.1642 32.7251 66.9077 32.252C67.6512 31.7564 68.0229 31.0692 68.0229 30.1905C68.0229 29.5597 67.7864 29.0415 67.3132 28.636C66.8401 28.2305 66.2205 27.915 65.4545 27.6898C64.7111 27.4645 63.8775 27.2617 62.9537 27.0815C62.0526 26.8787 61.1401 26.6309 60.2164 26.338C59.3152 26.0226 58.4816 25.6283 57.7156 25.1552C56.9721 24.6595 56.3638 23.9611 55.8907 23.0599C55.4176 22.1362 55.181 21.0435 55.181 19.7818C55.181 17.6866 55.9696 15.9293 57.5466 14.5099C59.1237 13.0905 61.2528 12.3809 63.9338 12.3809C66.6373 12.3809 68.7777 13.1469 70.3547 14.6789C71.9543 16.2109 72.7879 18.1147 72.8555 20.3901H68.0229C67.9779 19.3087 67.5836 18.4413 66.8401 17.788C66.1192 17.1121 65.1279 16.7741 63.8662 16.7741C62.7172 16.7741 61.7935 17.0332 61.0951 17.5514C60.3966 18.0471 60.0474 18.6892 60.0474 19.4777C60.0474 20.1311 60.284 20.6605 60.7571 21.066C61.2302 21.4716 61.8498 21.787 62.6158 22.0123C63.3818 22.2376 64.2267 22.4516 65.1504 22.6544C66.0741 22.8346 66.9978 23.0824 67.9215 23.3979C68.8452 23.7133 69.6901 24.1188 70.4561 24.6145C71.2221 25.0876 71.8417 25.786 72.3148 26.7097C72.7879 27.6334 73.0245 28.7374 73.0245 30.0216C73.0245 32.1844 72.1458 33.953 70.3885 35.3273C68.6537 36.6791 66.367 37.355 63.5283 37.355C61.9286 37.355 60.5205 37.1297 59.3039 36.6791C58.0873 36.206 57.1298 35.5751 56.4314 34.7866C55.733 33.9981 55.2036 33.1419 54.8431 32.2182C54.5051 31.2945 54.3136 30.3145 54.2686 29.2781H59.135C59.2026 30.337 59.6306 31.2156 60.4192 31.9141C61.2077 32.6125 62.3342 32.9617 63.7986 32.9617Z" fill="white"/>
<path d="M90.9276 12.8878H96.6389L87.7848 28.5008V36.8818H82.8508V28.5008L73.9966 12.8878H79.7079L85.284 23.4654H85.3516L90.9276 12.8878Z" fill="white"/>
<path d="M106.801 32.9617C108.13 32.9617 109.166 32.7251 109.91 32.252C110.653 31.7564 111.025 31.0692 111.025 30.1905C111.025 29.5597 110.788 29.0415 110.315 28.636C109.842 28.2305 109.223 27.915 108.457 27.6898C107.713 27.4645 106.88 27.2617 105.956 27.0815C105.055 26.8787 104.142 26.6309 103.219 26.338C102.317 26.0226 101.484 25.6283 100.718 25.1552C99.9743 24.6595 99.366 23.9611 98.8928 23.0599C98.4197 22.1362 98.1832 21.0435 98.1832 19.7818C98.1832 17.6866 98.9717 15.9293 100.549 14.5099C102.126 13.0905 104.255 12.3809 106.936 12.3809C109.639 12.3809 111.78 13.1469 113.357 14.6789C114.956 16.2109 115.79 18.1147 115.858 20.3901H111.025C110.98 19.3087 110.586 18.4413 109.842 17.788C109.121 17.1121 108.13 16.7741 106.868 16.7741C105.719 16.7741 104.796 17.0332 104.097 17.5514C103.399 18.0471 103.05 18.6892 103.05 19.4777C103.05 20.1311 103.286 20.6605 103.759 21.066C104.232 21.4716 104.852 21.787 105.618 22.0123C106.384 22.2376 107.229 22.4516 108.153 22.6544C109.076 22.8346 110 23.0824 110.924 23.3979C111.847 23.7133 112.692 24.1188 113.458 24.6145C114.224 25.0876 114.844 25.786 115.317 26.7097C115.79 27.6334 116.027 28.7374 116.027 30.0216C116.027 32.1844 115.148 33.953 113.391 35.3273C111.656 36.6791 109.369 37.355 106.53 37.355C104.931 37.355 103.523 37.1297 102.306 36.6791C101.089 36.206 100.132 35.5751 99.4336 34.7866C98.7351 33.9981 98.2057 33.1419 97.8452 32.2182C97.5073 31.2945 97.3158 30.3145 97.2707 29.2781H102.137C102.205 30.337 102.633 31.2156 103.421 31.9141C104.21 32.6125 105.336 32.9617 106.801 32.9617Z" fill="white"/>
<path d="M135.822 12.8878V17.5176H129.232V36.8818H124.298V17.5176H117.708V12.8878H135.822Z" fill="white"/>
<path d="M155.791 32.3534V36.8818H138.522V12.8878H155.791V17.4162H143.456V22.4516H155.284V26.9801H143.456V32.3534H155.791Z" fill="white"/>
<path d="M164.535 12.8878L171.565 22.1813L178.594 12.8878H183.122V36.8818H178.391V20.5253L171.632 29.2105H171.497L164.738 20.5253V36.8818H160.007V12.8878H164.535Z" fill="white"/>
<path d="M190.759 36.8818H185.589L194.612 12.8878H199.816L208.839 36.8818H203.534L202.081 32.7589H192.213L190.759 36.8818ZM197.18 18.9708H197.113L193.801 28.3318H200.492L197.18 18.9708Z" fill="white"/>
<path fill-rule="evenodd" clip-rule="evenodd" d="M22.53 36.8926H0.985901C0.985901 40.0669 2.24693 43.1113 4.49153 45.356C6.73613 47.6003 9.78048 48.8614 12.9549 48.8614C17.9137 48.8614 22.53 48.8614 22.53 48.8614V36.8926Z" fill="white"/>
<path fill-rule="evenodd" clip-rule="evenodd" d="M22.53 12.9547H0.985901C0.985901 16.1291 2.24693 19.1735 4.49153 21.4181C6.73613 23.6624 9.78048 24.9236 12.9549 24.9236C17.9137 24.9236 22.53 24.9236 22.53 24.9236V12.9547Z" fill="white"/>
<path fill-rule="evenodd" clip-rule="evenodd" d="M22.554 36.8926L44.0981 36.8926C44.0981 33.7182 42.8371 30.6738 40.5925 28.4292C38.3479 26.1848 35.3035 24.9237 32.1291 24.9237C27.1703 24.9237 22.554 24.9237 22.554 24.9237V36.8926Z" fill="white"/>
<path fill-rule="evenodd" clip-rule="evenodd" d="M22.554 12.9548L44.0981 12.9548C44.0981 9.78046 42.8371 6.73606 40.5925 4.49146C38.3479 2.2471 35.3035 0.985967 32.1291 0.985967C27.1703 0.985967 22.554 0.985967 22.554 0.985967V12.9548Z" fill="white"/>
</svg>
